<svg width="30" height="30" viewBox="0 0 30 30" fill="none" xmlns="http://www.w3.org/2000/svg">
<path d="M17.7428 12.1006V12.749H14.8608V5.24128H17.7428V5.83935V12.1006ZM27.6312 7.49419C28.0318 7.49419 28.357 7.81935 28.357 8.21999C28.357 8.62064 28.0318 8.9458 27.6312 8.9458H25.535C25.3996 8.9458 25.2892 9.05612 25.2892 9.19161C25.2892 9.32709 25.3996 9.43741 25.535 9.43741H27.397C27.7976 9.43741 28.1228 9.76257 28.1228 10.1632C28.1228 10.5639 27.7976 10.889 27.397 10.889H25.2815C25.146 10.889 25.0357 10.9993 25.0357 11.1348C25.0357 11.2703 25.146 11.3806 25.2815 11.3806H26.9266C27.3273 11.3806 27.6525 11.7058 27.6525 12.1064C27.6525 12.5071 27.3273 12.8323 26.9266 12.8323H22.9279C22.4634 12.8439 21.9679 12.8168 21.4125 12.749C20.9015 12.6871 20.4428 12.6213 20.015 12.4606C19.4305 12.2419 19.0976 11.8452 18.4279 11.851L18.2344 11.8529V6.04838C18.6525 5.96515 19.0763 5.7929 19.4963 5.53548C19.8583 5.31483 20.2066 5.04193 20.5608 4.69935C21.6215 3.67548 22.4073 2.40967 22.3454 0.892251C22.3376 0.700638 22.3376 0.532251 22.4247 0.398702C22.5699 0.176122 22.8679 0.0793475 23.1466 0.164509C23.3325 0.220638 23.5144 0.358057 23.6576 0.54967C23.6692 0.565154 23.6789 0.578702 23.6866 0.590315C24.126 1.40322 23.9363 2.38838 23.7002 3.07354C23.5512 3.50515 23.315 3.90193 23.1215 4.31225C22.9783 4.61999 22.9047 4.9529 22.9047 5.30128C22.9047 5.43677 23.015 5.54709 23.1505 5.54709H27.2557C27.6563 5.54709 27.9815 5.87225 27.9815 6.2729C27.9815 6.67354 27.6563 6.9987 27.2557 6.9987H25.6608C25.5254 6.9987 25.415 7.10903 25.415 7.24451C25.415 7.37999 25.5254 7.49032 25.6608 7.49032H27.6312V7.49419Z" fill="url(#paint0_linear_13_675)"/>
<path d="M6.99677 18.06C7.76961 18.06 8.39612 17.4335 8.39612 16.6606C8.39612 15.8878 7.76961 15.2613 6.99677 15.2613C6.22392 15.2613 5.59741 15.8878 5.59741 16.6606C5.59741 17.4335 6.22392 18.06 6.99677 18.06Z" fill="url(#paint1_linear_13_675)"/>
<path d="M13.1323 18.06C13.9051 18.06 14.5316 17.4335 14.5316 16.6606C14.5316 15.8878 13.9051 15.2613 13.1323 15.2613C12.3594 15.2613 11.7329 15.8878 11.7329 16.6606C11.7329 17.4335 12.3594 18.06 13.1323 18.06Z" fill="url(#paint2_linear_13_675)"/>
<path d="M19.2697 18.06C20.0426 18.06 20.6691 17.4335 20.6691 16.6606C20.6691 15.8878 20.0426 15.2613 19.2697 15.2613C18.4969 15.2613 17.8704 15.8878 17.8704 16.6606C17.8704 17.4335 18.4969 18.06 19.2697 18.06Z" fill="url(#paint3_linear_13_675)"/>
<path d="M24.6233 13.3219V22.0897C24.6233 23.3458 23.6014 24.3677 22.3452 24.3677H12.6678C12.5807 24.3677 12.4994 24.4142 12.4549 24.4897L9.35234 29.8645L6.24976 24.4897C6.20525 24.4142 6.12396 24.3677 6.03686 24.3677H3.92138C2.66525 24.3677 1.64331 23.3458 1.64331 22.0897V11.2335C1.64331 9.97741 2.66525 8.95547 3.92138 8.95547H14.3691V12.9948C14.3691 13.1303 14.4794 13.2406 14.6149 13.2406H17.9865C18.122 13.2406 18.2323 13.1303 18.2323 12.9948V12.3426L18.4298 12.3406C19.0143 12.331 19.5349 12.8148 20.0846 12.9929C20.9652 13.2774 22.0104 13.3452 22.9336 13.3219H24.6233ZM21.1588 16.6606C21.1588 15.6193 20.3111 14.7716 19.2698 14.7716C18.2285 14.7716 17.3807 15.6193 17.3807 16.6606C17.3807 17.7019 18.2285 18.5497 19.2698 18.5497C20.3111 18.5497 21.1588 17.7039 21.1588 16.6606ZM15.0233 16.6606C15.0233 15.6193 14.1756 14.7716 13.1343 14.7716C12.093 14.7716 11.2452 15.6193 11.2452 16.6606C11.2452 17.7019 12.093 18.5497 13.1343 18.5497C14.1756 18.5497 15.0233 17.7039 15.0233 16.6606ZM8.88783 16.6606C8.88783 15.6193 8.04008 14.7716 6.99879 14.7716C5.9575 14.7716 5.10976 15.6193 5.10976 16.6606C5.10976 17.7019 5.9575 18.5497 6.99879 18.5497C8.04008 18.5516 8.88783 17.7039 8.88783 16.6606Z" fill="url(#paint4_linear_13_675)"/>
<defs>
<linearGradient id="paint0_linear_13_675" x1="17.86" y1="-7.23273" x2="33.6182" y2="-1.76745" gradientUnits="userSpaceOnUse">
<stop stop-color="#FE936E"/>
<stop offset="0.451336" stop-color="#FF2061"/>
<stop offset="0.842112" stop-color="#B53ABF"/>
</linearGradient>
<linearGradient id="paint1_linear_13_675" x1="6.21935" y1="13.638" x2="9.52777" y2="14.7179" gradientUnits="userSpaceOnUse">
<stop stop-color="#FE936E"/>
<stop offset="0.451336" stop-color="#FF2061"/>
<stop offset="0.842112" stop-color="#B53ABF"/>
</linearGradient>
<linearGradient id="paint2_linear_13_675" x1="12.3548" y1="13.638" x2="15.6633" y2="14.7179" gradientUnits="userSpaceOnUse">
<stop stop-color="#FE936E"/>
<stop offset="0.451336" stop-color="#FF2061"/>
<stop offset="0.842112" stop-color="#B53ABF"/>
</linearGradient>
<linearGradient id="paint3_linear_13_675" x1="18.4923" y1="13.638" x2="21.8007" y2="14.7179" gradientUnits="userSpaceOnUse">
<stop stop-color="#FE936E"/>
<stop offset="0.451336" stop-color="#FF2061"/>
<stop offset="0.842112" stop-color="#B53ABF"/>
</linearGradient>
<linearGradient id="paint4_linear_13_675" x1="6.74998" y1="-3.17176" x2="33.3821" y2="6.38163" gradientUnits="userSpaceOnUse">
<stop stop-color="#FE936E"/>
<stop offset="0.451336" stop-color="#FF2061"/>
<stop offset="0.842112" stop-color="#B53ABF"/>
</linearGradient>
</defs>
</svg>
