<svg width="30" height="30" viewBox="0 0 30 30" fill="none" xmlns="http://www.w3.org/2000/svg">
<g clip-path="url(#clip0_13_679)">
<path d="M16.8252 26.4763C16.611 26.6123 16.2383 26.8809 17.0936 26.8809H24.4728C25.3711 26.8809 26.1019 26.1501 26.1019 25.2518V1.62911C26.1019 0.730819 25.3711 0 24.4728 0H10.3254C9.42711 0 8.69629 0.730819 8.69629 1.62911V14.6623C8.69629 15.2868 8.97723 15.2846 9.11131 15.3231C9.25613 15.3643 9.62268 15.4205 9.94606 15.47C10.1337 15.4988 10.5074 15.504 10.5074 15.0696V3.45738C10.5074 3.23338 10.6906 3.0501 10.9146 3.0501H23.8834C24.1074 3.0501 24.2907 3.23338 24.2907 3.45738V21.4445C24.2907 21.6685 24.1074 21.8518 23.8834 21.8518H20.2092C19.2928 21.8518 19.4074 22.0944 19.4732 22.2289C19.539 22.3634 19.5903 22.5058 19.6255 22.6543C19.7694 23.2616 19.6318 23.8897 19.2383 24.423C18.8075 25.0066 17.9691 25.7505 16.8252 26.4763ZM19.0174 1.62691C19.0174 1.73493 18.9745 1.83852 18.8981 1.9149C18.8217 1.99128 18.7181 2.03419 18.6101 2.03419H16.1881C16.0801 2.03419 15.9765 1.99128 15.9001 1.9149C15.8237 1.83852 15.7808 1.73493 15.7808 1.62691C15.7808 1.5189 15.8237 1.4153 15.9001 1.33892C15.9765 1.26254 16.0801 1.21963 16.1881 1.21963H18.6101C18.7181 1.21963 18.8217 1.26254 18.8981 1.33892C18.9745 1.4153 19.0174 1.5189 19.0174 1.62691Z" fill="url(#paint0_linear_13_679)"/>
<path d="M3.99102 25.5168L5.01003 23.5262L4.91188 22.0538C4.86811 21.4147 4.99836 20.7758 5.28877 20.2048L7.03469 16.7704C7.24794 16.3692 7.90692 15.9396 8.54797 15.9396C8.67765 15.9396 8.80342 15.9568 8.92128 15.9906C9.1079 16.0437 9.48048 16.1009 9.84075 16.1561C10.2915 16.2252 10.7577 16.2967 11.0768 16.3868C11.2415 16.4329 11.6009 16.4917 11.9487 16.5484C12.4092 16.6237 12.8856 16.7016 13.1975 16.7895C13.5027 16.8758 13.7757 17.0184 13.9897 17.1959C14.6962 16.1313 16.3901 13.5809 16.6483 13.2022L16.6464 13.2009C16.8756 12.8504 17.227 12.6574 17.6361 12.6574C18.1167 12.6574 18.5934 12.9286 18.8503 13.3486C19.0773 13.7197 19.0944 14.1538 18.8976 14.5389L14.9178 22.3778C15.0937 22.4262 15.2754 22.4507 15.4578 22.4505C15.799 22.4505 16.1299 22.3651 16.4422 22.1963L16.531 22.1485C16.6355 22.0924 16.7398 22.0361 16.844 21.9794C17.0962 21.8436 17.3563 21.7749 17.6172 21.7749C18.1412 21.7749 18.6108 22.0602 18.8427 22.5195C19.0813 22.992 19.0205 23.5495 18.6801 24.0107C18.0406 24.8772 15.9783 26.5304 12.8852 27.5911L11.8925 29.5347C11.8214 29.6751 11.7126 29.793 11.5783 29.8752C11.444 29.9573 11.2896 30.0005 11.1322 29.9999H11.1321C10.9985 29.9998 10.8668 29.9682 10.7476 29.9078L4.3636 26.6626C4.26382 26.6121 4.17504 26.5424 4.10241 26.4573C4.02977 26.3723 3.97472 26.2737 3.94044 26.1673C3.90539 26.0609 3.89181 25.9486 3.9005 25.837C3.90918 25.7253 3.93995 25.6165 3.99102 25.5168ZM15.6753 11.0572C15.6203 11.1278 15.5498 11.1848 15.4693 11.2239C15.3888 11.263 15.3005 11.2832 15.211 11.2828C15.0919 11.2828 14.974 11.2471 14.8698 11.1794L13.6125 10.3631C13.5407 10.3167 13.4788 10.2564 13.4303 10.1859C13.3819 10.1154 13.348 10.036 13.3304 9.95233C13.3123 9.86864 13.3111 9.7822 13.3266 9.69802C13.3422 9.61383 13.3743 9.53357 13.4211 9.46189L14.1807 8.29202C14.2966 8.11363 14.4879 8.00717 14.6926 8.00717C14.9724 8.00717 15.2069 8.19582 15.2763 8.47684L15.4256 9.08214C16.5294 9.14185 17.7428 9.43183 18.8995 9.91918C19.9775 10.3735 20.9647 10.9778 21.7544 11.6666C21.8677 11.7662 21.937 11.9067 21.947 12.0572C21.957 12.2078 21.9069 12.3562 21.8078 12.4699C21.7086 12.5836 21.5684 12.6533 21.4178 12.6638C21.2673 12.6744 21.1188 12.6248 21.0047 12.526C20.3054 11.9159 19.4242 11.3779 18.4566 10.9701C17.5403 10.5839 16.5916 10.3363 15.713 10.2474L15.7827 10.5298C15.8293 10.7183 15.7901 10.9106 15.6753 11.0572Z" fill="url(#paint1_linear_13_679)"/>
</g>
<defs>
<linearGradient id="paint0_linear_13_679" x1="12.5642" y1="-15.5909" x2="34.3583" y2="-10.985" gradientUnits="userSpaceOnUse">
<stop stop-color="#FE936E"/>
<stop offset="0.451336" stop-color="#FF2061"/>
<stop offset="0.842112" stop-color="#B53ABF"/>
</linearGradient>
<linearGradient id="paint1_linear_13_679" x1="7.90913" y1="-4.74863" x2="29.9391" y2="1.15275" gradientUnits="userSpaceOnUse">
<stop stop-color="#FE936E"/>
<stop offset="0.451336" stop-color="#FF2061"/>
<stop offset="0.842112" stop-color="#B53ABF"/>
</linearGradient>
<clipPath id="clip0_13_679">
<rect width="30" height="30" fill="white"/>
</clipPath>
</defs>
</svg>
