<svg width="50" height="50" viewBox="0 0 25 25" fill="none" xmlns="http://www.w3.org/2000/svg">
<path d="M2.21639 16.3883L0.790611 7.1211C0.767419 6.9693 0.789938 6.81404 0.855297 6.67508C0.920657 6.53613 1.0259 6.41978 1.15762 6.34084C1.28934 6.26191 1.44157 6.22398 1.59493 6.23187C1.74828 6.23976 1.89581 6.29312 2.01874 6.38516L6.46092 9.71641C6.57635 9.80302 6.70823 9.86517 6.8485 9.89906C6.98876 9.93295 7.13447 9.93787 7.27671 9.91352C7.41894 9.88917 7.55471 9.83605 7.67572 9.75743C7.79672 9.67881 7.90041 9.57633 7.98045 9.45625L11.6789 3.90625C11.7691 3.77138 11.8911 3.66082 12.0342 3.58436C12.1772 3.5079 12.337 3.4679 12.4992 3.4679C12.6614 3.4679 12.8212 3.5079 12.9642 3.58436C13.1073 3.66082 13.2294 3.77138 13.3195 3.90625L17.018 9.45313C17.098 9.5732 17.2017 9.67568 17.3227 9.75431C17.4437 9.83293 17.5795 9.88604 17.7217 9.91039C17.8639 9.93475 18.0096 9.92983 18.1499 9.89593C18.2902 9.86204 18.4221 9.79989 18.5375 9.71328L22.9797 6.38203C23.1026 6.29 23.2501 6.23664 23.4035 6.22875C23.5568 6.22085 23.7091 6.25879 23.8408 6.33772C23.9725 6.41665 24.0778 6.533 24.1431 6.67196C24.2085 6.81091 24.231 6.96617 24.2078 7.11797L22.782 16.3852L2.21639 16.3883ZM2.21639 18.1023H22.7836V20.4578C22.7836 20.5987 22.7558 20.7382 22.7019 20.8683C22.648 20.9984 22.569 21.1167 22.4694 21.2163C22.3698 21.3159 22.2516 21.3949 22.1214 21.4488C21.9913 21.5027 21.8518 21.5305 21.7109 21.5305H3.28905C3.14818 21.5305 3.0087 21.5027 2.87856 21.4488C2.74842 21.3949 2.63017 21.3159 2.53057 21.2163C2.3294 21.0151 2.21639 20.7423 2.21639 20.4578V18.1023Z" fill="url(#paint0_linear_3_602)"/>
<defs>
<linearGradient id="paint0_linear_3_602" x1="2.08331" y1="8.75001" x2="20.8333" y2="23.3333" gradientUnits="userSpaceOnUse">
<stop stop-color="#FF7A00"/>
<stop offset="1" stop-color="#FFB800"/>
</linearGradient>
</defs>
</svg>
