<svg width="30" height="30" viewBox="0 0 30 30" fill="none" xmlns="http://www.w3.org/2000/svg">
<g clip-path="url(#clip0_13_649)">
<path d="M10.5642 14.9918H16.5675V19.4943H10.5642V14.9918ZM15.0667 11.9902C15.0667 11.1614 14.3948 10.4895 13.5657 10.4895C12.737 10.4895 12.065 11.1612 12.065 11.9902V13.491H15.0666V11.9902H15.0667Z" fill="url(#paint0_linear_13_649)"/>
<path d="M26.3228 4.48611C21.9573 4.48611 16.2135 3.01324 14.1662 0.28377C13.8938 -0.0478702 13.4043 -0.0956827 13.0729 0.176485C13.0337 0.208748 12.9977 0.244694 12.9654 0.283829C10.9181 3.01277 5.17412 4.48611 0.808887 4.48611C0.394629 4.48611 0.0585938 4.82203 0.0585938 5.23652V14.9918C0.0585938 23.2434 7.2242 28.2177 13.3601 29.9707C13.4944 30.0098 13.6372 30.0098 13.7718 29.9707C19.9077 28.2177 27.0733 23.2434 27.0733 14.9918V5.23652C27.0733 4.82203 26.7373 4.48606 26.3228 4.48606V4.48611ZM18.0684 20.2446C18.0684 20.659 17.7324 20.995 17.3181 20.995H9.81375C9.39949 20.995 9.06352 20.659 9.06352 20.2446V14.2415C9.06352 13.827 9.39949 13.491 9.81375 13.491H10.5643V11.9902C10.5643 10.3324 11.908 8.98863 13.5658 8.98863C15.2236 8.98863 16.5676 10.3324 16.5676 11.9902V13.491H17.3179C17.7324 13.491 18.0681 13.827 18.0681 14.2415V20.2446L18.0684 20.2446Z" fill="url(#paint1_linear_13_649)"/>
</g>
<defs>
<linearGradient id="paint0_linear_13_649" x1="11.8983" y1="5.26665" x2="19.396" y2="6.89812" gradientUnits="userSpaceOnUse">
<stop stop-color="#FE936E"/>
<stop offset="0.451336" stop-color="#FF2061"/>
<stop offset="0.842112" stop-color="#B53ABF"/>
</linearGradient>
<linearGradient id="paint1_linear_13_649" x1="6.06186" y1="-17.4001" x2="38.5888" y2="-7.8401" gradientUnits="userSpaceOnUse">
<stop stop-color="#FE936E"/>
<stop offset="0.451336" stop-color="#FF2061"/>
<stop offset="0.842112" stop-color="#B53ABF"/>
</linearGradient>
<clipPath id="clip0_13_649">
<rect width="30" height="30" fill="white"/>
</clipPath>
</defs>
</svg>
