<svg width="30" height="30" viewBox="0 0 30 30" fill="none" xmlns="http://www.w3.org/2000/svg">
<g clip-path="url(#clip0_13_676)">
<path d="M24.2601 8.76982L19.3073 8.05012L17.0923 3.56214C16.2371 1.82905 13.7632 1.82841 12.9076 3.56208L10.6926 8.05012L5.73975 8.76982C3.82726 9.04767 3.06232 11.4001 4.44665 12.7497L8.03059 16.2431L7.18456 21.1759C6.85784 23.0806 8.85858 24.5351 10.57 23.6357L15 21.3066L19.43 23.6357C21.1434 24.5363 23.1414 23.0763 22.8153 21.1759L21.9693 16.2431L25.5532 12.7497C26.9371 11.4006 26.1734 9.04785 24.2601 8.76982ZM7.89436 2.7628L6.6984 1.11679C6.37374 0.670072 5.74837 0.57099 5.30165 0.895657C4.85487 1.22027 4.75585 1.84564 5.08046 2.29241L6.27641 3.93842C6.60126 4.38538 7.22668 4.48411 7.67317 4.15956C8.11994 3.83501 8.21897 3.20958 7.89436 2.7628ZM3.92558 17.5141C3.75489 16.9889 3.19087 16.7012 2.66552 16.8721L0.691209 17.5136C0.165976 17.6842 -0.121426 18.2484 0.049199 18.7737C0.220175 19.2999 0.785369 19.5861 1.30926 19.4157L3.28363 18.7742C3.80886 18.6036 4.09626 18.0394 3.92558 17.5141ZM24.6983 0.895657C24.2516 0.57099 23.6262 0.670013 23.3016 1.11679L22.1056 2.7628C21.7809 3.20958 21.88 3.83501 22.3268 4.15956C22.7737 4.48428 23.399 4.38503 23.7235 3.93842L24.9195 2.29241C25.2442 1.84564 25.1451 1.22027 24.6983 0.895657ZM29.3088 17.5136L27.3344 16.8721C26.8091 16.7011 26.245 16.9889 26.0743 17.5141C25.9036 18.0393 26.191 18.6035 26.7163 18.7742L28.6907 19.4157C29.2149 19.5862 29.7798 19.2996 29.9508 18.7737C30.1214 18.2485 29.834 17.6843 29.3088 17.5136ZM15 25.2659C14.4477 25.2659 14 25.7136 14 26.2659V28.2954C14 28.8477 14.4477 29.2954 15 29.2954C15.5522 29.2954 15.9999 28.8477 15.9999 28.2954V26.2659C16 25.7136 15.5523 25.2659 15 25.2659Z" fill="url(#paint0_linear_13_676)"/>
</g>
<defs>
<linearGradient id="paint0_linear_13_676" x1="6.66666" y1="-15.8781" x2="41.7888" y2="-3.84967" gradientUnits="userSpaceOnUse">
<stop stop-color="#FE936E"/>
<stop offset="0.451336" stop-color="#FF2061"/>
<stop offset="0.842112" stop-color="#B53ABF"/>
</linearGradient>
<clipPath id="clip0_13_676">
<rect width="30" height="30" fill="white"/>
</clipPath>
</defs>
</svg>
