<svg width="30" height="30" viewBox="0 0 30 30" fill="none" xmlns="http://www.w3.org/2000/svg">
<g clip-path="url(#clip0_13_671)">
<path d="M23.7891 19.4531C22.0523 19.4531 20.5218 20.3075 19.5605 21.6067L11.2494 17.351C11.3874 16.8807 11.4844 16.3932 11.4844 15.8789C11.4844 15.1813 11.3413 14.5181 11.0943 13.908L19.7922 8.67398C20.7602 9.81 22.1829 10.5469 23.7891 10.5469C26.697 10.5469 29.0625 8.18139 29.0625 5.27344C29.0625 2.36549 26.697 0 23.7891 0C20.8811 0 18.5156 2.36549 18.5156 5.27344C18.5156 5.94357 18.6536 6.57926 18.8825 7.16941L10.1587 12.4188C9.19154 11.3166 7.78928 10.6055 6.21094 10.6055C3.30299 10.6055 0.9375 12.971 0.9375 15.8789C0.9375 18.7869 3.30299 21.1523 6.21094 21.1523C7.97637 21.1523 9.53268 20.2729 10.4903 18.9371L18.7741 23.179C18.6215 23.6716 18.5156 24.1846 18.5156 24.7266C18.5156 27.6345 20.8811 30 23.7891 30C26.697 30 29.0625 27.6345 29.0625 24.7266C29.0625 21.8186 26.697 19.4531 23.7891 19.4531Z" fill="url(#paint0_linear_13_671)"/>
</g>
<defs>
<linearGradient id="paint0_linear_13_671" x1="7.1875" y1="-17.4" x2="40.8269" y2="-7.10669" gradientUnits="userSpaceOnUse">
<stop stop-color="#FE936E"/>
<stop offset="0.451336" stop-color="#FF2061"/>
<stop offset="0.842112" stop-color="#B53ABF"/>
</linearGradient>
<clipPath id="clip0_13_671">
<rect width="30" height="30" fill="white"/>
</clipPath>
</defs>
</svg>
