<svg width="30" height="30" viewBox="0 0 30 30" fill="none" xmlns="http://www.w3.org/2000/svg">
<path d="M21.443 13.6922C21.4929 13.6922 21.5426 13.6928 21.5925 13.6938L21.6053 13.694C21.8852 13.699 22.1629 13.7171 22.4377 13.7471V3.53965C22.4377 1.58801 20.8498 0 18.8981 0H3.53988C1.58801 0 0 1.58801 0 3.53965V23.8994C0 25.8513 1.58801 27.4393 3.53965 27.4393H13.7936C12.9087 26.0172 12.4446 24.3931 12.4446 22.6957C12.4446 17.7311 16.4811 13.6922 21.443 13.6922H21.443ZM12.6947 5.77951H17.9403C18.4257 5.77951 18.8192 6.17297 18.8192 6.65842C18.8192 7.14387 18.4257 7.53732 17.9403 7.53732H12.6947C12.2095 7.53732 11.8158 7.14387 11.8158 6.65842C11.8158 6.17297 12.2095 5.77951 12.6947 5.77951ZM12.6947 9.29537H17.9403C18.4257 9.29537 18.8192 9.68877 18.8192 10.1743C18.8192 10.6598 18.4257 11.0532 17.9403 11.0532H12.6947C12.2095 11.0532 11.8158 10.6597 11.8158 10.1743C11.8158 9.68883 12.2095 9.29537 12.6947 9.29537ZM9.74309 21.6595H4.49754C4.01209 21.6595 3.61863 21.2661 3.61863 20.7806C3.61863 20.2954 4.01209 19.9017 4.49754 19.9017H9.74303C10.2282 19.9017 10.6219 20.2954 10.6219 20.7806C10.6219 21.2661 10.2283 21.6595 9.74309 21.6595ZM9.74309 18.0848H4.49754C4.01209 18.0848 3.61863 17.6914 3.61863 17.2059C3.61863 16.7205 4.01209 16.327 4.49754 16.327H9.74303C10.2282 16.327 10.6219 16.7205 10.6219 17.2059C10.6219 17.6914 10.2283 18.0848 9.74309 18.0848ZM9.74309 14.569H4.49754C4.01209 14.569 3.61863 14.1756 3.61863 13.6901C3.61863 13.2046 4.01209 12.8112 4.49754 12.8112H9.74303C10.2282 12.8112 10.6219 13.2046 10.6219 13.6901C10.6219 14.1756 10.2283 14.569 9.74309 14.569ZM9.74309 11.0532H4.49754C4.01209 11.0532 3.61863 10.6597 3.61863 10.1743C3.61863 9.68883 4.01209 9.29537 4.49754 9.29537H9.74303C10.2282 9.29537 10.6219 9.68877 10.6219 10.1743C10.6219 10.6598 10.2283 11.0532 9.74309 11.0532ZM9.74309 7.53732H4.49754C4.01209 7.53732 3.61863 7.14387 3.61863 6.65842C3.61863 6.17297 4.01209 5.77951 4.49754 5.77951H9.74303C10.2282 5.77951 10.6219 6.17297 10.6219 6.65842C10.6219 7.14387 10.2283 7.53732 9.74309 7.53732ZM11.8158 13.6901C11.8158 13.2046 12.2095 12.8112 12.6947 12.8112H15.2211C15.7066 12.8112 16.1 13.2046 16.1 13.6901C16.1 14.1756 15.7066 14.569 15.2211 14.569H12.6947C12.2095 14.569 11.8158 14.1756 11.8158 13.6901Z" fill="url(#paint0_linear_13_678)"/>
<path d="M26.6476 17.5747C25.2986 16.2018 23.4968 15.4269 21.5744 15.393L21.5618 15.3928C21.5222 15.392 21.4827 15.3914 21.4431 15.3914C17.4182 15.3914 14.1438 18.6681 14.1438 22.6957C14.1438 24.2953 14.6515 25.8144 15.6116 27.0891C17.0053 28.9392 19.1307 30 21.4431 30C25.4679 30 28.7423 26.7233 28.7423 22.6957C28.7423 20.7676 27.9985 18.9489 26.6476 17.5747ZM24.5618 21.5082L21.7745 24.9829C21.6921 25.0857 21.5877 25.1687 21.4689 25.2257C21.3501 25.2826 21.2201 25.3122 21.0883 25.312C20.909 25.312 20.7287 25.2574 20.5731 25.1447L18.4942 23.6385C18.1012 23.3537 18.0133 22.8042 18.2982 22.4109C18.583 22.0179 19.1325 21.9301 19.5255 22.2151L20.9269 23.2304L23.1909 20.4082C23.4946 20.0296 24.0475 19.969 24.4264 20.2727C24.8049 20.5764 24.8656 21.1296 24.5619 21.5082L24.5618 21.5082Z" fill="url(#paint1_linear_13_678)"/>
<defs>
<linearGradient id="paint0_linear_13_678" x1="4.98616" y1="-15.9148" x2="32.3843" y2="-8.60235" gradientUnits="userSpaceOnUse">
<stop stop-color="#FE936E"/>
<stop offset="0.451336" stop-color="#FF2061"/>
<stop offset="0.842112" stop-color="#B53ABF"/>
</linearGradient>
<linearGradient id="paint1_linear_13_678" x1="17.3879" y1="6.91842" x2="34.6475" y2="12.5479" gradientUnits="userSpaceOnUse">
<stop stop-color="#FE936E"/>
<stop offset="0.451336" stop-color="#FF2061"/>
<stop offset="0.842112" stop-color="#B53ABF"/>
</linearGradient>
</defs>
</svg>
